<?xml version="1.0" encoding="UTF-8" standalone="no"?>
<svg width="431px" height="413px" viewBox="0 0 431 413" version="1.1" xmlns="http://www.w3.org/2000/svg" xmlns:xlink="http://www.w3.org/1999/xlink" xmlns:sketch="http://www.bohemiancoding.com/sketch/ns">
    <!-- Generator: Sketch 3.3 (11970) - http://www.bohemiancoding.com/sketch -->
    <title>House</title>
    <desc>Created with Sketch.</desc>
    <defs></defs>
    <g id="Page-1" stroke="none" stroke-width="1" fill="none" fill-rule="evenodd" sketch:type="MSPage">
        <g id="House" sketch:type="MSLayerGroup" transform="translate(1.000000, 0.000000)" stroke="#000000" fill="#FFFFFF">
            <rect id="Rectangle-13" sketch:type="MSShapeGroup" x="0" y="0" width="429" height="412"></rect>
            <rect id="Rectangle-15" sketch:type="MSShapeGroup" x="0" y="321" width="429" height="91"></rect>
            <polygon id="Triangle-11-Copy" sketch:type="MSShapeGroup" points="214.5 35.6822034 381 168.317797 48 168.317797 "></polygon>
            <rect id="Rectangle-50" sketch:type="MSShapeGroup" x="69" y="167" width="290" height="206"></rect>
            <polygon id="Triangle-11" sketch:type="MSShapeGroup" points="214 52 359 168 69 168 "></polygon>
            <g id="Rectangle-50-Copy-+-Oval-1" transform="translate(180.000000, 249.000000)" sketch:type="MSShapeGroup">
                <rect id="Rectangle-50-Copy" x="0" y="0" width="75" height="124"></rect>
                <circle id="Oval-1" cx="63" cy="67" r="5"></circle>
            </g>
            <g id="Oval-2-Copy-3-+-Oval-2-+-Path" transform="translate(182.000000, 88.000000)" sketch:type="MSShapeGroup">
                <circle id="Oval-2-Copy-3" cx="32" cy="32" r="32"></circle>
                <circle id="Oval-2" cx="32" cy="32" r="27"></circle>
                <path d="M5.66904927,26 L27,26 L27,5.46205651 C28.6203211,5.15866276 30.2916317,5 32,5 C34.0621639,5 36.0703318,5.23118432 38,5.66904927 L38,5.66904927 L38,26 L38,26 L58.3309507,26 C58.7688157,27.9296682 59,29.9378361 59,32 C59,33.7083683 58.8413372,35.3796789 58.5379435,37 L38,37 L38,58.3309507 C36.0703318,58.7688157 34.0621639,59 32,59 C30.2916317,59 28.6203211,58.8413372 27,58.5379435 L27,37 L5.46205651,37 C5.15866276,35.3796789 5,33.7083683 5,32 C5,29.9378361 5.23118432,27.9296682 5.66904927,26 Z" id="Path"></path>
            </g>
            <g id="Rectangle-5-Copy-+-Rectangle-5-+-Rectangle-6" transform="translate(89.000000, 231.000000)" sketch:type="MSShapeGroup">
                <rect id="Rectangle-5-Copy" x="0" y="0" width="74" height="79.4411765"></rect>
                <rect id="Rectangle-5" x="3" y="3" width="68" height="73"></rect>
                <path d="M43,33 L43,3 L31,3 L31,33 L3,33 L3,45 L31,45 L31,76 L43,76 L43,45 L71,45 L71,33 L43,33 Z" id="Rectangle-6"></path>
            </g>
            <g id="Rectangle-5-Copy-+-Rectangle-5-+-Rectangle-6-Copy" transform="translate(268.000000, 230.000000)" sketch:type="MSShapeGroup">
                <rect id="Rectangle-5-Copy" x="0" y="0" width="74" height="79.4411765"></rect>
                <rect id="Rectangle-5" x="3" y="3" width="68" height="73"></rect>
                <path d="M43,33 L43,3 L31,3 L31,33 L3,33 L3,45 L31,45 L31,76 L43,76 L43,45 L71,45 L71,33 L43,33 Z" id="Rectangle-6"></path>
            </g>
            <path d="M99.3227257,72.8814984 C93.6449119,78.4361388 84.8600375,82 75,82 C60.9818045,82 49.1368178,74.7964286 45.304093,64.9098431 L45.304093,64.9098431 C34.4614632,64.0145483 26,56.5615744 26,47.5 C26,41.0771298 30.2510522,35.462423 36.5879406,32.4182647 C38.8470254,24.7220405 47.352548,19 57.5,19 C63.388274,19 68.7236864,20.9266949 72.6065808,24.0478063 L72.6065808,24.0478063 C73.2304668,24.0161572 73.861988,24 74.5,24 C80.1167383,24 85.2304293,25.2522103 89.0602275,27.3026509 L89.0602275,27.3026509 C94.576281,23.3885996 101.927838,21 110,21 C122.926811,21 134.00563,27.125569 138.657778,35.8319226 C146.154476,40.2125331 151,47.1681764 151,55 C151,68.254834 137.120827,79 120,79 C112.055218,79 104.808477,76.6861903 99.3227257,72.8814984 Z" id="Oval-6" sketch:type="MSShapeGroup"></path>
            <path d="M178.42695,392.5 C181.63589,382.371206 180,372 180,372 L255,372 C255,372 261.874856,382.269814 265.54681,392.5 C269.218764,402.730186 269.716263,413 269.716263,413 L167.010639,413 C167.010639,413 175.218009,402.628794 178.42695,392.5 Z" id="Rectangle-15" sketch:type="MSShapeGroup"></path>
        </g>
    </g>
</svg>