<?xml version="1.0" encoding="UTF-8" standalone="no"?>
<svg width="249px" height="294px" viewBox="0 0 249 294" version="1.1" xmlns="http://www.w3.org/2000/svg" xmlns:xlink="http://www.w3.org/1999/xlink" xmlns:sketch="http://www.bohemiancoding.com/sketch/ns">
    <!-- Generator: Sketch 3.3 (11970) - http://www.bohemiancoding.com/sketch -->
    <title>Cat</title>
    <desc>Created with Sketch.</desc>
    <defs></defs>
    <g id="Page-1" stroke="none" stroke-width="1" fill="none" fill-rule="evenodd" sketch:type="MSPage">
        <g id="Cat" sketch:type="MSLayerGroup" transform="translate(-1.000000, -1.000000)">
            <path d="M55.8467501,246.05 L73.9977708,246.05 L73.9977708,246.05 L80.8141232,284.707455 C81.7018567,289.742042 86.5048108,293.107899 91.5408692,292.219906 C96.5780348,291.331718 99.9394637,286.528753 99.0513038,281.491748 L92.8019673,246.05 L133.872077,246.05 L133.872077,246.05 L127.296536,283.341748 C126.408376,288.378753 129.769805,293.181718 134.806971,294.069906 C139.843029,294.957899 144.645983,291.592042 145.533717,286.557455 L152.676274,246.05 L152.893659,246.05 C155.010485,246.05 157.046194,245.704443 158.947496,245.066709 L166.07178,285.470531 C166.959514,290.505118 171.762468,293.870975 176.798526,292.982982 C181.835692,292.094794 185.197121,287.291829 184.308961,282.254824 L171.902558,211.894617 L171.902558,200.300538 C171.902558,194.697591 169.480304,189.665057 165.626233,186.189005 C165.257348,185.826583 164.859183,185.49591 164.436481,185.200316 L164.436481,185.200316 C161.236263,182.753172 157.234912,181.3 152.893659,181.3 L48.3188639,181.3 C46.0851885,181.3 43.9418322,181.684759 41.9514062,182.391562 C36.3451201,177.435893 31.0501441,171.125249 27.921136,163.39615 C18.801451,140.869221 35.629858,118.680805 25.800602,109.258585 C4.36768031,88.7132151 -9.7298612,96.9367916 13.1431525,115.059544 C23.618028,123.359001 9.12977356,143.466512 16.3083383,166.946539 C19.788878,178.330871 25.529849,187.344845 30.5210935,193.610763 L30.5210935,193.610763 C29.7381826,195.691565 29.3099652,197.946038 29.3099652,200.300538 L29.3099652,227.049462 C29.3099652,233.583821 32.6044886,239.342357 37.6224991,242.760963 L30.927768,280.728672 C30.0396081,285.765677 33.4010369,290.568642 38.4382026,291.45683 C43.474261,292.344823 48.2772151,288.978966 49.1649486,283.944379 L55.8467501,246.05 Z" id="Rectangle-32" stroke="#000000" fill="#DDA542" sketch:type="MSShapeGroup"></path>
            <path d="M230.111236,62.6635255 L237.678764,1.82510654 L182.691746,34.9828983 C170.832855,31.5070383 157.934161,29.6 144.444444,29.6 C129.335309,29.6 114.967615,31.9923958 101.971951,36.3019558 L47.8654134,3.67510654 L55.634833,66.1366096 C45.03747,78.5381178 38.8888889,93.302922 38.8888889,109.15 C38.8888889,153.084252 86.1477209,188.7 144.444444,188.7 C202.741168,188.7 250,153.084252 250,109.15 C250,91.7957956 242.626292,75.7395119 230.111236,62.6635255 Z" id="Triangle-2" stroke="#000000" fill="#DDA542" sketch:type="MSShapeGroup"></path>
            <ellipse id="Oval-84" stroke="#000000" fill="#FFDAA6" sketch:type="MSShapeGroup" cx="150.925926" cy="154.475" rx="62.037037" ry="26.825"></ellipse>
            <g id="EyeCat" transform="translate(96.296296, 70.300000)" sketch:type="MSShapeGroup">
                <ellipse id="Oval-61-Copy-8" stroke="#000000" fill="#FFFFFF" cx="23.1481481" cy="29.6" rx="23.1481481" ry="29.6"></ellipse>
                <ellipse id="Oval-61-Copy-9" fill="#22D9D8" cx="22.4867725" cy="33.5466667" rx="15.8730159" ry="24.3377778"></ellipse>
                <ellipse id="Oval-61-Copy-10" fill="#FFFFFF" cx="17.1957672" cy="23.0222222" rx="3.96825397" ry="5.92"></ellipse>
            </g>
            <g id="EyeCat-Copy" transform="translate(153.703704, 70.300000)" sketch:type="MSShapeGroup">
                <ellipse id="Oval-61-Copy-8" stroke="#000000" fill="#FFFFFF" cx="23.1481481" cy="29.6" rx="23.1481481" ry="29.6"></ellipse>
                <ellipse id="Oval-61-Copy-9" fill="#22D9D8" cx="22.4867725" cy="33.5466667" rx="15.8730159" ry="24.3377778"></ellipse>
                <ellipse id="Oval-61-Copy-10" fill="#FFFFFF" cx="17.1957672" cy="23.0222222" rx="3.96825397" ry="5.92"></ellipse>
            </g>
            <polygon id="Triangle-4" stroke="#000000" fill="#000000" sketch:type="MSShapeGroup" transform="translate(150.000000, 138.750000) scale(1, -1) translate(-150.000000, -138.750000) " points="150 131.35 161.111111 146.15 138.888889 146.15 "></polygon>
            <path d="M150.286597,146.424274 C150.286597,146.424274 159.653284,161.467428 169.614605,162.296708 C179.575926,163.125988 193.518519,150.775 193.518519,150.775" id="Line" stroke="#000000" stroke-linecap="square" sketch:type="MSShapeGroup"></path>
            <path d="M107.054676,146.424274 C107.054676,146.424274 116.421362,161.467428 126.382683,162.296708 C136.344004,163.125988 150.286597,150.775 150.286597,150.775" id="Line-Copy-4" stroke="#000000" stroke-linecap="square" sketch:type="MSShapeGroup" transform="translate(128.670636, 154.380474) scale(-1, 1) translate(-128.670636, -154.380474) "></path>
            <path d="M51.8518519,12.95 L81.4814815,38.0997088 L60.2101226,53.65 L51.8518519,12.95 L51.8518519,12.95 Z" id="Triangle-5" stroke="#000000" fill="#D8D8D8" sketch:type="MSShapeGroup"></path>
            <path d="M233.333333,11.1 L203.703704,36.2497088 L224.975063,51.8 L233.333333,11.1 L233.333333,11.1 Z" id="Triangle-5-Copy" stroke="#000000" fill="#D8D8D8" sketch:type="MSShapeGroup"></path>
        </g>
    </g>
</svg>