<?xml version="1.0" standalone="no"?>
<!DOCTYPE svg PUBLIC "-//W3C//DTD SVG 1.1//EN" "http://www.w3.org/Graphics/SVG/1.1/DTD/svg11.dtd">
<svg width="100%" height="100%" viewBox="0 0 249 294" version="1.1" xmlns="http://www.w3.org/2000/svg" xmlns:xlink="http://www.w3.org/1999/xlink" xml:space="preserve" style="fill-rule:evenodd;clip-rule:evenodd;stroke-miterlimit:1.41421;">
    <g id="Cat">
        <path id="Rectangle-32" d="M54.8468,245.05L72.9978,245.05L79.8141,283.707C80.7019,288.742 85.5048,292.108 90.5409,291.22C95.578,290.332 98.9395,285.529 98.0513,280.492L91.802,245.05L132.872,245.05L126.297,282.342C125.408,287.379 128.77,292.182 133.807,293.07C138.843,293.958 143.646,290.592 144.534,285.557L151.676,245.05L151.894,245.05C154.01,245.05 156.046,244.704 157.947,244.067L165.072,284.471C165.96,289.505 170.762,292.871 175.799,291.983C180.836,291.095 184.197,286.292 183.309,281.255L170.903,210.895L170.903,199.301C170.903,193.698 168.48,188.665 164.626,185.189C164.257,184.827 163.859,184.496 163.436,184.2C160.236,181.753 156.235,180.3 151.894,180.3L47.3189,180.3C45.0852,180.3 42.9418,180.685 40.9514,181.392C35.3451,176.436 30.0501,170.125 26.9211,162.396C17.8015,139.869 34.6299,117.681 24.8006,108.259C3.36768,87.7132 -10.7299,95.9368 12.1432,114.06C22.618,122.359 8.12977,142.467 15.3083,165.947C18.7889,177.331 24.5298,186.345 29.5211,192.611C28.7382,194.692 28.31,196.946 28.31,199.301L28.31,226.049C28.31,232.584 31.6045,238.342 36.6225,241.761L29.9278,279.729C29.0396,284.766 32.401,289.569 37.4382,290.457C42.4743,291.345 47.2772,287.979 48.1649,282.944L54.8468,245.05Z" style="fill:rgb(221,165,66);stroke-width:1px;stroke:black;"/>
        <path id="Triangle-2" d="M229.111,61.6635L236.679,0.825107L181.692,33.9829C169.833,30.507 156.934,28.6 143.444,28.6C128.335,28.6 113.968,30.9924 100.972,35.302L46.8654,2.67511L54.6348,65.1366C44.0375,77.5381 37.8889,92.3029 37.8889,108.15C37.8889,152.084 85.1477,187.7 143.444,187.7C201.741,187.7 249,152.084 249,108.15C249,90.7958 241.626,74.7395 229.111,61.6635Z" style="fill:rgb(221,165,66);stroke-width:1px;stroke:black;"/>
        <ellipse id="Oval-84" cx="149.926" cy="153.475" rx="62.037" ry="26.825" style="fill:rgb(255,218,166);stroke-width:1px;stroke:black;"/>
        <g id="EyeCat">
            <ellipse id="Oval-61-Copy-8" cx="118.444" cy="98.9" rx="23.1481" ry="29.6" style="fill:white;stroke-width:1px;stroke:black;"/>
            <ellipse id="Oval-61-Copy-9" cx="117.783" cy="102.847" rx="15.873" ry="24.3378" style="fill:rgb(34,217,216);"/>
            <ellipse id="Oval-61-Copy-10" cx="112.492" cy="92.3222" rx="3.96825" ry="5.92" style="fill:white;"/>
        </g>
        <g id="EyeCat-Copy">
            <ellipse id="Oval-61-Copy-81" cx="175.852" cy="98.9" rx="23.1481" ry="29.6" style="fill:white;stroke-width:1px;stroke:black;"/>
            <ellipse id="Oval-61-Copy-91" cx="175.19" cy="102.847" rx="15.873" ry="24.3378" style="fill:rgb(34,217,216);"/>
            <ellipse id="Oval-61-Copy-101" cx="169.899" cy="92.3222" rx="3.96825" ry="5.92" style="fill:white;"/>
        </g>
        <path id="Triangle-4" d="M149,145.15L160.111,130.35L137.889,130.35L149,145.15Z" style="fill:black;stroke-width:1px;stroke:black;"/>
        <path id="Line" d="M149.287,145.424C149.287,145.424 158.653,160.467 168.615,161.297C178.576,162.126 192.519,149.775 192.519,149.775" style="fill:none;stroke-width:1px;stroke-linecap:square;stroke:black;"/>
        <path id="Line-Copy-4" d="M149.287,145.424C149.287,145.424 139.92,160.467 129.959,161.297C119.997,162.126 106.055,149.775 106.055,149.775" style="fill:none;stroke-width:1px;stroke-linecap:square;stroke:black;"/>
        <path id="Triangle-5" d="M50.8519,11.95L80.4815,37.0997L59.2101,52.65L50.8519,11.95Z" style="fill:rgb(216,216,216);stroke-width:1px;stroke:black;"/>
        <path id="Triangle-5-Copy" d="M232.333,10.1L202.704,35.2497L223.975,50.8L232.333,10.1Z" style="fill:rgb(216,216,216);stroke-width:1px;stroke:black;"/>
    </g>
</svg>
