<?xml version="1.0" encoding="UTF-8" standalone="no"?>
<svg width="749px" height="439px" viewBox="0 0 749 439" version="1.1" xmlns="http://www.w3.org/2000/svg" xmlns:xlink="http://www.w3.org/1999/xlink" xmlns:sketch="http://www.bohemiancoding.com/sketch/ns">
    <!-- Generator: Sketch 3.3 (11970) - http://www.bohemiancoding.com/sketch -->
    <title>RocketShip</title>
    <desc>Created with Sketch.</desc>
    <defs></defs>
    <g id="Page-1" stroke="none" stroke-width="1" fill="none" fill-rule="evenodd" sketch:type="MSPage">
        <g id="RocketShip" sketch:type="MSLayerGroup" stroke="#000000" fill="#FFFFFF">
            <rect id="back" sketch:type="MSShapeGroup" x="0" y="0" width="749" height="439"></rect>
            <g id="Group" transform="translate(276.000000, 39.000000)" sketch:type="MSShapeGroup">
                <path d="M58.2897934,312.390856 C58.2897934,312.390856 40.4486856,177.150783 49.6988734,115.758849 C58.9490611,54.3669157 96.717976,0.333015724 96.717976,0.333015724 C96.717976,0.333015724 130.294957,29.8595573 145.796782,122.420245 C161.298608,214.980933 135.464478,312.390856 135.464478,312.390856 L58.2897934,312.390856 L58.2897934,312.390856 Z" id="Rectangle-2"></path>
                <g id="Oval-1-Copy-+-Oval-1" transform="translate(82.083333, 211.944310)">
                    <ellipse id="Oval-1-Copy" cx="16.8075397" cy="16.2893084" rx="16.8075397" ry="16.2893084"></ellipse>
                    <ellipse id="Oval-1" cx="16.8201485" cy="16.4237288" rx="12.9114183" ry="12.5133172"></ellipse>
                </g>
                <g id="Oval-1-Copy-+-Oval-1-Copy" transform="translate(82.083333, 124.351090)">
                    <ellipse id="Oval-1-Copy" cx="16.8075397" cy="16.2893084" rx="16.8075397" ry="16.2893084"></ellipse>
                    <ellipse id="Oval-1" cx="16.8201485" cy="16.4237288" rx="12.9114183" ry="12.5133172"></ellipse>
                </g>
                <g id="Oval-1-Copy-+-Oval-1-Copy-Copy" transform="translate(82.083333, 169.711864)">
                    <ellipse id="Oval-1-Copy" cx="16.8075397" cy="16.2893084" rx="16.8075397" ry="16.2893084"></ellipse>
                    <ellipse id="Oval-1" cx="16.8201485" cy="16.4237288" rx="12.9114183" ry="12.5133172"></ellipse>
                </g>
                <g id="Oval-1-Copy-+-Oval-1-Copy-Copy-Copy" transform="translate(82.083333, 80.554479)">
                    <ellipse id="Oval-1-Copy" cx="16.8075397" cy="16.2893084" rx="16.8075397" ry="16.2893084"></ellipse>
                    <ellipse id="Oval-1" cx="16.8201485" cy="16.4237288" rx="12.9114183" ry="12.5133172"></ellipse>
                </g>
                <rect id="Rectangle-3" x="52" y="257" width="94" height="55"></rect>
                <path d="M196.263205,322.381549 L134.069444,256.523002 L134.069444,312.050847 L196.263205,322.381549 L196.263205,322.381549 Z" id="Triangle-1"></path>
                <path d="M0.390873016,322.381549 L62.5846333,256.523002 L62.5846333,312.050847 L0.390873016,322.381549 L0.390873016,322.381549 Z" id="Triangle-1-Copy"></path>
            </g>
            <circle id="Oval-9" sketch:type="MSShapeGroup" cx="145" cy="167" r="57"></circle>
            <path d="M197.317545,146.826156 C224.192672,151.715606 242,160.261892 242,169.987311 C242,185.175142 198.571621,197.487311 145,197.487311 C91.4283793,197.487311 48,185.175142 48,169.987311 C48,160.261892 65.8073283,151.715606 92.682455,146.826156 C91.8918115,148.649007 91.1936455,150.521278 90.593876,152.43705 C82.6748059,154.834304 78,157.789953 78,160.987311 C78,168.99544 107.325349,175.487311 143.5,175.487311 C179.674651,175.487311 209,168.99544 209,160.987311 C209,158.269013 205.621101,155.72542 199.742362,153.551132 C199.072409,151.245836 198.260787,149.000827 197.317545,146.826156 L197.317545,146.826156 Z" id="Oval-9-Copy-3" sketch:type="MSShapeGroup"></path>
            <g id="Rings" transform="translate(502.134922, 104.994339)" sketch:type="MSShapeGroup">
                <g id="Group" transform="translate(0.000000, 1.000000)">
                    <path d="M143.477279,123.873695 C206.726838,81.2113292 246.65696,29.8088101 232.663704,9.06295496 C218.670448,-11.6829001 156.052775,6.08394212 92.8032169,48.7463078 C29.5536587,91.4086735 -10.3764638,142.811193 3.61679214,163.557048 C17.6100481,184.302903 80.2277211,166.536061 143.477279,123.873695 L143.477279,123.873695 Z" id="Oval-14-Copy-5"></path>
                    <path d="M140.926909,116.99054 C198.16001,78.3863264 234.291879,31.8733442 221.629697,13.1008871 C208.967514,-5.67157008 152.306192,10.4052454 95.073091,49.0094595 C37.8399899,87.6136736 1.70812121,134.126656 14.3703034,152.899113 C27.0324857,171.67157 83.693808,155.594755 140.926909,116.99054 L140.926909,116.99054 Z" id="Oval-14"></path>
                    <path d="M137.887042,109.845353 C188.140497,75.9489695 219.86604,35.1083022 208.748026,18.6251691 C197.630013,2.14203603 147.878608,16.2582643 97.625153,50.1546474 C47.3716985,84.0510305 15.6461552,124.891698 26.7641689,141.374831 C37.8821825,157.857964 87.6335875,143.741736 137.887042,109.845353 L137.887042,109.845353 Z" id="Oval-14-Copy"></path>
                    <path d="M134.651162,102.614684 C178.622935,72.9553483 206.382785,37.2197645 196.654523,22.797023 C186.926261,8.37428153 143.393782,20.7259812 99.4220089,50.3853165 C55.4502362,80.0446517 27.6903858,115.780236 37.4186478,130.202977 C47.1469097,144.625718 90.6793891,132.274019 134.651162,102.614684 L134.651162,102.614684 Z" id="Oval-14-Copy-2"></path>
                    <path d="M131.660075,98.1275708 C170.048131,72.2345004 194.282921,41.0367684 185.789994,28.4454862 C177.297067,15.854204 139.292521,26.6374339 100.904466,52.5305043 C62.5164101,78.4235748 38.2816201,109.621307 46.7745472,122.212589 C55.2674743,134.803871 93.2720198,124.020641 131.660075,98.1275708 L131.660075,98.1275708 Z" id="Oval-14-Copy-3"></path>
                </g>
                <path d="M130.383379,93.2984099 C164.192115,70.4941297 185.535932,43.0179822 178.056128,31.9287169 C170.576324,20.8394515 137.105349,30.3363475 103.296613,53.1406277 C69.4878775,75.9449079 48.1440611,103.421055 55.623865,114.510321 C63.1036689,125.599586 96.5746436,116.10269 130.383379,93.2984099 L130.383379,93.2984099 Z" id="Oval-14-Copy-4"></path>
            </g>
            <polygon id="Star-1" sketch:type="MSShapeGroup" points="486.843267 343.857881 472.736421 351.274289 475.430589 335.566085 464.01791 324.441473 479.789844 322.149677 486.843267 307.857881 493.89669 322.149677 509.668623 324.441473 498.255945 335.566085 500.950113 351.274289 "></polygon>
            <polygon id="Star-1-Copy-9" sketch:type="MSShapeGroup" points="655 88 640.893154 95.4164079 643.587322 79.7082039 632.174644 68.5835921 647.946577 66.2917961 655 52 662.053423 66.2917961 677.825356 68.5835921 666.412678 79.7082039 669.106846 95.4164079 "></polygon>
            <circle id="Oval-9-Copy" sketch:type="MSShapeGroup" cx="607.5" cy="174.5" r="29.5"></circle>
            <polygon id="Star-1-Copy-5" sketch:type="MSShapeGroup" points="218 338 203.893154 345.416408 206.587322 329.708204 195.174644 318.583592 210.946577 316.291796 218 302 225.053423 316.291796 240.825356 318.583592 229.412678 329.708204 232.106846 345.416408 "></polygon>
            <path d="M137.758109,382.60228 C126.760294,396.260582 109.900747,405 91,405 C57.862915,405 31,378.137085 31,345 C31,311.862915 57.862915,285 91,285 C100.41302,285 109.319767,287.167617 117.248313,291.030925 C116.668079,291.010366 116.08525,291 115.5,291 C88.7141896,291 67,312.71419 67,339.5 C67,366.28581 88.7141896,388 115.5,388 C123.52353,388 131.092001,386.051659 137.758109,382.60228 L137.758109,382.60228 Z" id="Oval-19" sketch:type="MSShapeGroup"></path>
            <path d="M546.448633,48.5803616 L541.741129,56.9801283 L537.937427,48.1343082 L528.494076,46.2528762 L535.731542,39.9018324 L534.602734,30.3392768 L542.879436,35.2599359 L551.625146,31.2313836 L549.502962,40.6235619 L556.036916,47.6963353 L546.448633,48.5803616 L546.448633,48.5803616 Z" id="Star-1-Copy" sketch:type="MSShapeGroup"></path>
            <path d="M475.125,131.046633 L471.402451,136.94248 L468.987064,130.40151 L462.22945,128.683073 L467.703886,124.364633 L467.25,117.406733 L473.048774,121.27876 L479.525871,118.696979 L477.635275,125.408464 L482.092227,130.770735 L475.125,131.046633 L475.125,131.046633 Z" id="Star-1-Copy-4" sketch:type="MSShapeGroup"></path>
            <path d="M687.339607,237.080491 L685.503494,243.807085 L681.281254,238.258116 L674.316493,238.590501 L678.289133,232.860186 L675.820786,226.339017 L682.498253,228.346457 L687.937492,223.983768 L688.091753,230.954749 L693.921735,234.779628 L687.339607,237.080491 L687.339607,237.080491 Z" id="Star-1-Copy-8" sketch:type="MSShapeGroup"></path>
            <path d="M514.339607,416.080491 L512.503494,422.807085 L508.281254,417.258116 L501.316493,417.590501 L505.289133,411.860186 L502.820786,405.339017 L509.498253,407.346457 L514.937492,402.983768 L515.091753,409.954749 L520.921735,413.779628 L514.339607,416.080491 L514.339607,416.080491 Z" id="Star-1-Copy-10" sketch:type="MSShapeGroup"></path>
            <path d="M257.125,243.046633 L253.402451,248.94248 L250.987064,242.40151 L244.22945,240.683073 L249.703886,236.364633 L249.25,229.406733 L255.048774,233.27876 L261.525871,230.696979 L259.635275,237.408464 L264.092227,242.770735 L257.125,243.046633 L257.125,243.046633 Z" id="Star-1-Copy-6" sketch:type="MSShapeGroup"></path>
            <path d="M287.833728,69.5992545 L284.299315,81.7113473 L276.835474,71.5385434 L264.223996,71.9199597 L271.592453,61.6778555 L267.332544,49.801491 L279.350342,53.6443263 L289.329052,45.9229131 L289.388002,58.5400202 L299.815093,65.6442889 L287.833728,69.5992545 L287.833728,69.5992545 Z" id="Star-1-Copy-2" sketch:type="MSShapeGroup"></path>
            <path d="M77.8747157,245.099255 L74.340303,257.211347 L66.8764617,247.038543 L54.2649833,247.41996 L61.6334409,237.177856 L57.3735314,225.301491 L69.3913299,229.144326 L79.3700394,221.422913 L79.4289897,234.04002 L89.8560809,241.144289 L77.8747157,245.099255 L77.8747157,245.099255 Z" id="Star-1-Copy-11" sketch:type="MSShapeGroup"></path>
            <path d="M648.833728,361.599255 L645.299315,373.711347 L637.835474,363.538543 L625.223996,363.91996 L632.592453,353.677856 L628.332544,341.801491 L640.350342,345.644326 L650.329052,337.922913 L650.388002,350.54002 L660.815093,357.644289 L648.833728,361.599255 L648.833728,361.599255 Z" id="Star-1-Copy-7" sketch:type="MSShapeGroup"></path>
            <path d="M99.1556914,58.93978 L97.2961877,79.1082378 L82.4189748,65.3644036 L62.6630134,69.8283067 L71.1368648,51.4321581 L60.7865129,34.0225442 L80.900854,36.3969333 L94.2599461,21.1732971 L98.2174412,41.0368988 L116.824166,49.0377881 L99.1556914,58.93978 L99.1556914,58.93978 Z" id="Star-1-Copy-3" sketch:type="MSShapeGroup"></path>
            <path d="M337,379.680672 C337.42882,382.158985 338.77716,370.570393 339.816132,371.873207 C341.552177,374.050112 343.2659,388.552147 344.544487,391.5 C345.431291,393.544576 345.219107,382.514582 346.627588,384.941799 C349.428102,389.767888 346.287945,398.410947 350.102361,405.357559 C351.183071,407.325692 351.413986,398.250871 352.703545,400.145401 C354.154142,402.276519 353.972556,412.696568 355.586783,415.226582 C356.553293,416.741416 357.240022,408.481603 358.264357,409.807775 C359.789039,411.78173 359.425983,421.075628 360.952702,423.36801 C361.580396,424.310499 362.891147,418.523604 363.543112,419.296805 C368.444893,425.110097 365.601728,431.867884 365.601728,431.867884 C365.601728,431.867884 369.740183,420.566028 373.545034,416.639799 C374.544637,415.608307 376.98894,426.072195 378.074873,425.12988 C379.629919,423.780493 382.210189,407.458548 383.736559,405.35756 C384.328345,404.542989 385.930825,412.533633 386.490522,411.938866 C389.240224,409.016869 391.854081,393.38857 393.619291,389.684843 C394.85471,387.092715 395.368416,396.488415 396.527012,393.957798 C397.681001,391.437243 398.891274,375.517995 400.193743,371.873206 C401.247886,368.923322 404.932013,379.857452 405.973932,377.496695 C410.036284,368.292309 411,350 411,350 L337,350 C337,350 334.952651,367.848274 337,379.680672 L337,379.680672 Z" id="Triangle-1" sketch:type="MSShapeGroup"></path>
            <path d="M398.284485,373.341208 C397.947256,375.290182 396.886907,366.176785 396.069848,367.201332 C394.704603,368.913274 393.356912,380.317835 392.351417,382.636059 C391.654025,384.243936 391.820889,375.569827 390.713243,377.478617 C388.510889,381.273907 390.980342,388.070904 387.980644,393.533797 C387.130761,395.081559 386.949167,387.945018 385.935044,389.434898 C384.794278,391.110833 384.937079,399.305274 383.667634,401.294905 C382.907559,402.486188 382.367508,395.99058 381.56196,397.033496 C380.362933,398.585836 380.648444,405.89466 379.447816,407.697414 C378.95419,408.438598 377.923401,403.88772 377.410689,404.495774 C373.555874,409.067411 375.79177,414.381809 375.79177,414.381809 C375.79177,414.381809 372.537243,405.493905 369.545066,402.406275 C368.758967,401.595099 366.836741,409.824016 365.982751,409.082968 C364.759846,408.021796 362.730693,395.186038 361.530339,393.533797 C361.064951,392.89321 359.804743,399.177141 359.364591,398.709409 C357.202196,396.411518 355.14663,384.121251 353.758448,381.2086 C352.786902,379.170121 352.382918,386.559004 351.471785,384.568899 C350.564275,382.586706 349.612503,370.067634 348.588227,367.201331 C347.759237,364.88151 344.861999,373.480231 344.042622,371.623705 C340.847944,364.385274 340.090067,350 340.090067,350 L398.284485,350 C398.284485,350 399.894544,364.03608 398.284485,373.341208 L398.284485,373.341208 Z" id="Triangle-1-Copy-2" sketch:type="MSShapeGroup"></path>
            <path d="M351.623443,367.397937 C351.874805,368.850651 352.665162,362.05776 353.274177,362.821431 C354.291795,364.097468 355.296329,372.598135 356.045799,374.32608 C356.565618,375.52455 356.441242,369.059092 357.266852,370.481855 C358.908431,373.310767 357.067763,378.377073 359.303662,382.448973 C359.937142,383.602635 360.072498,378.283241 360.828399,379.393759 C361.678697,380.642958 361.572256,386.750884 362.518468,388.233904 C363.085008,389.121855 363.487549,384.280196 364.087983,385.057559 C364.981707,386.214633 364.768895,391.662443 365.663812,393.00617 C366.031748,393.558629 366.800072,390.166522 367.182235,390.619749 C370.055515,394.02733 368.388935,397.988546 368.388935,397.988546 C368.388935,397.988546 370.814775,391.363731 373.045067,389.06229 C373.631005,388.45766 375.063784,394.591284 375.700326,394.038926 C376.611848,393.247956 378.124326,383.680511 379.019039,382.448973 C379.365927,381.971496 380.305254,386.655377 380.633332,386.306742 C382.245126,384.593953 383.777292,375.433104 384.812007,373.262088 C385.536173,371.742659 385.837292,377.250142 386.516427,375.766769 C387.192861,374.289293 387.902288,364.957898 388.665757,362.82143 C389.283665,361.092295 391.443191,367.50156 392.053934,366.117754 C394.435165,360.722413 395.000067,350 395.000067,350 L351.623443,350 C351.623443,350 350.423347,360.462133 351.623443,367.397937 L351.623443,367.397937 L351.623443,367.397937 Z" id="Triangle-1-Copy-3" sketch:type="MSShapeGroup"></path>
            <path d="M343.344876,93.7595141 C345.755659,88.3428394 351.056986,77.5190279 351.056986,77.5190279 L397.029068,77.5190279 C397.029068,77.5190279 402.059272,86.954893 404.04298,92.2462351 C406.118278,97.7818837 409.206085,110 409.206085,110 L336.600773,110 C336.600773,110 340.936922,99.1698301 343.344876,93.7595141 Z" id="Rectangle-2" sketch:type="MSShapeGroup"></path>
        </g>
    </g>
</svg>