<?xml version="1.0" encoding="UTF-8" standalone="no"?>
<svg width="751px" height="440px" viewBox="0 0 751 440" version="1.1" xmlns="http://www.w3.org/2000/svg" xmlns:xlink="http://www.w3.org/1999/xlink" xmlns:sketch="http://www.bohemiancoding.com/sketch/ns">
    <!-- Generator: Sketch 3.3 (11970) - http://www.bohemiancoding.com/sketch -->
    <title>Unicorn</title>
    <desc>Created with Sketch.</desc>
    <defs></defs>
    <g id="Page-1" stroke="none" stroke-width="1" fill="none" fill-rule="evenodd" sketch:type="MSPage">
        <g id="Unicorn" sketch:type="MSLayerGroup" stroke="#000000" fill="#FFFFFF">
            <rect id="back" sketch:type="MSShapeGroup" x="2" y="1" width="749" height="439"></rect>
            <rect id="sky" sketch:type="MSShapeGroup" x="2" y="0" width="749" height="215"></rect>
            <path d="M2,101.400831 L113.429474,114.742607 L270.761292,70.7254753 L489.163186,94.0439899 L641.065247,128.893158 L751,94.0439892 L751,214 L2,214 L2,101.400831 Z" id="Rectangle-9" sketch:type="MSShapeGroup"></path>
            <path d="M2,120.475517 L112.985252,120.475516 L270.537659,99.7097502 L486.92868,104.406177 L640.688416,128.402989 L751,114.299908 L751,214.995472 L2,214.995472 L2,120.475517 Z" id="Rectangle-9-Copy" sketch:type="MSShapeGroup"></path>
            <g id="Tree-Copy" transform="translate(94.000000, 58.000000)" sketch:type="MSShapeGroup">
                <path d="M61.5903614,149.204819 L84.1445783,149.204819 L84.1445783,193.718431 C84.1445783,193.718431 76.6665595,196.915663 72.8674699,196.915663 C69.1484872,196.915663 61.5903614,193.718431 61.5903614,193.718431 L61.5903614,149.204819 Z" id="Rectangle-5"></path>
                <path d="M38.5799846,106.122829 L16.8284746,106.122829 C16.8284746,106.122829 29.051859,96.4583603 44.9163055,70.8465809 C46.8158168,67.779984 48.6487132,64.6765779 50.4037152,61.5891406 L37.061958,61.5891406 C37.061958,61.5891406 45.5797607,57.3623232 55.4265651,39.7853581 C65.2733694,22.208393 71.5648551,0 71.5648551,0 C71.5648551,0 81.096636,26.7313494 87.0720625,39.7853581 C93.0474891,52.8393668 104.815048,61.5891406 104.815048,61.5891406 L89.8707134,61.5891406 L89.8707134,61.5891406 C92.2229054,66.7907033 94.5519869,71.5810611 96.6765636,75.3660351 C106.727226,93.2714834 121.993764,106.122829 121.993764,106.122829 L97.5953857,106.122829 C97.7455105,106.503624 97.8945824,106.879085 98.0425392,107.248977 C108.355465,133.031293 143.30908,157.376467 143.30908,157.376467 C143.30908,157.376467 95.7057059,167.020396 71.9985841,167.020396 C48.0816104,167.020396 0.43679302,157.376467 0.43679302,157.376467 C0.43679302,157.376467 13.9435576,149.021531 36.1281866,110.463817 C36.9574172,109.022584 37.7747735,107.574752 38.5799846,106.122829 L38.5799846,106.122829 Z" id="Triangle-1"></path>
            </g>
            <g id="Tree-Copy-2" transform="translate(609.000000, 61.385542)" sketch:type="MSShapeGroup">
                <path d="M78.6987952,191.650602 L107.518072,191.650602 L107.518072,248.529106 C107.518072,248.529106 97.962826,252.614458 93.1084337,252.614458 C88.3564003,252.614458 78.6987952,248.529106 78.6987952,248.529106 L78.6987952,191.650602 Z" id="Rectangle-5"></path>
                <path d="M142,122.762301 C136.026873,116.062382 129.142771,107.298228 123.531165,97.3010449 C120.816428,92.4646891 117.840379,86.3436765 114.8348,79.6972352 L114.8348,79.6972352 L133.930339,79.6972352 C133.930339,79.6972352 118.894014,68.5169687 111.258747,51.8368465 C103.623479,35.1567242 91.4439815,1 91.4439815,1 C91.4439815,1 83.4048609,29.3773911 70.8228331,51.8368465 C58.2408053,74.2963019 47.3569463,79.6972352 47.3569463,79.6972352 L64.4047472,79.6972352 C62.1622447,83.642294 59.8202103,87.6077573 57.3930571,91.5261868 C37.1218198,124.252349 21.5030508,136.601393 21.5030508,136.601393 L49.296647,136.601393 L49.296647,136.601393 C48.2677661,138.456627 47.2233664,140.306635 46.163794,142.148211 C17.816768,191.416401 0.558124414,202.092153 0.558124414,202.092153 C0.558124414,202.092153 61.4376133,214.414951 91.9981908,214.414951 C105.343249,214.414951 124.614253,212.023387 142,209.347423 L142,164.543994 C135.077571,156.275818 128.952244,147.229525 125.276578,138.04036 C125.087522,137.56772 124.897041,137.087964 124.705215,136.601393 L142,136.601393 L142,122.762301 L142,122.762301 Z" id="Triangle-1"></path>
            </g>
            <g transform="translate(133.000000, 125.000000)" sketch:type="MSShapeGroup">
                <path d="M26.9994354,172.962918 C29.8040949,171.667709 11.108497,177.224341 18.1932507,171.254815 C25.2780044,165.285289 67.9550675,163.413714 72.9969246,161.324047 C91.5033423,153.653809 100.909775,127.923768 111.95838,125.417654 C115.954957,124.511125 122.395707,122.930901 126.670995,122.827052 C141.252803,122.472849 153.321259,130.188842 153.321259,130.188842 C153.321259,130.188842 137.960472,146.662606 106.830891,155.770634 C91.7234468,160.190835 87.3719984,166.808792 79.1420612,169.574719 C64.8245798,174.386556 26.4864162,179.696242 26.4864162,179.696242 C26.4864162,179.696242 4.96286321,181.212143 4.96286319,180.049314 C4.96286314,177.354946 19.5048388,176.423969 26.9994354,172.962918 Z" id="Tail1"></path>
                <path d="M75.7304267,169.010249 C94.6537582,159.631464 106.14096,136.325023 117.438468,133.260671 C135.46337,128.371572 159.715597,135.11191 159.715597,135.11191 C159.715597,135.11191 144.008761,155.255208 112.17789,166.392051 C96.7301047,171.796853 92.2806266,179.88896 83.8652848,183.270999 C58.109745,193.621882 1.85183917,188.702465 0.248189088,186.127746 C-1.355461,183.553027 64.4620404,174.595088 75.7304267,169.010249 Z" id="Tail1-Copy"></path>
                <path d="M85.7823246,179.791847 C104.288742,172.121609 113.712365,149.64876 124.760969,147.142646 C142.388751,143.144201 166.106659,148.656642 166.106659,148.656642 C166.106659,148.656642 150.745872,165.130406 119.616291,174.238434 C104.508847,178.658635 100.157398,185.276592 91.9274612,188.042519 C66.7393607,196.507767 17.3114306,190.089403 15.7869028,188.042519 C14.2623749,185.995635 74.7622004,184.359288 85.7823246,179.791847 Z" id="Tail1-Copy-2"></path>
                <path d="M146.984095,245.174176 L128.067014,167.756146 L185.721011,142.445246 L159.903316,246.766697 L159.480356,246.806827 L151.297837,278.755287 L139.291115,278.559627 L146.984095,245.174176 L146.984095,245.174176 Z" id="HindLeg-Copy"></path>
                <path d="M249.88963,172.484268 L271.716144,120.32715 L334.837786,172.484268 L337.205709,221.15472 L325.291076,223.880742 L320.35685,185.133538 L249.88963,172.484268 Z" id="HindLeg-Copy-2"></path>
                <path d="M249.086301,87.3640678 C234.040096,88.2456467 204.650013,97.7320145 200.484898,97.3053847 C196.319783,96.8787549 226.093465,88.805902 224.012866,84.7958136 C221.932268,80.7857253 201.746187,85.2093665 210.521057,81.2566351 C219.295926,77.3039036 241.454823,65.9920605 251.785901,63.0444117 C262.116979,60.0967628 267.848489,64.2113053 271.894283,63.7457111 C288.534134,61.8307797 306.808389,68.3377982 306.808389,68.3377982 C306.808389,68.3377982 307.14399,77.7400503 303.046218,84.1838256 C298.948446,90.6276008 289.898537,99.8493541 289.898537,99.8493541 C289.898537,99.8493541 288.087814,93.0295877 269.915188,90.1181798 C265.632792,89.4321037 264.132505,86.4824889 249.086301,87.3640678 L249.086301,87.3640678 Z" id="mane"></path>
                <path d="M225.670849,103.462632 C212.238927,102.937313 196.589681,100.347221 196.719365,96.9399985 C196.859602,93.2555004 220.503165,93.8332972 229.447541,89.0665805 C238.391917,84.2998639 244.872521,83.2813927 248.623147,83.1214531 C264.049012,82.4636414 281.571254,89.7493916 281.571254,89.7493916 C281.571254,89.7493916 282.308305,96.5630817 280.15657,102.093651 C281.067848,102.438123 281.571254,102.647439 281.571254,102.647439 C281.571254,102.647439 282.519671,111.415103 279.124007,117.131824 C275.728343,122.848545 267.890888,130.814765 267.890888,130.814765 C267.890888,130.814765 265.737839,124.349488 248.55332,120.414865 C244.503772,119.487668 242.902175,116.642963 228.896314,116.447235 C214.890453,116.251506 196.579128,113.522544 196.719365,109.838046 C196.842821,106.594423 215.181457,106.654097 225.670849,103.462632 L225.670849,103.462632 Z" id="mane"></path>
                <path d="M246.971566,72.214832 C232.616151,66.9404655 215.546326,71.5685429 216.455379,67.5563499 C217.364432,63.544157 240.280268,58.8289914 250.421939,56.9862816 C260.563611,55.1435719 267.426792,56.4026296 271.313311,57.5888364 C287.298083,62.467559 303.855623,76.5665934 303.855623,76.5665934 C303.855623,76.5665934 303.084485,86.2495858 298.456279,91.1112555 C293.828074,95.9729253 284.186928,101.624348 284.186928,101.624348 C284.186928,101.624348 283.261554,93.9583149 266.383811,83.5512991 C262.406555,81.0988759 261.326982,77.4891984 246.971566,72.214832 L246.971566,72.214832 Z" id="mane"></path>
                <path d="M272.035205,37.9128187 C270.734292,37.7818853 269.447518,37.6950738 268.188024,37.6614112 C264.487479,37.5625066 258.270339,38.103509 250.490907,42.0743729 C247.982005,43.3549948 234.358568,48.9516339 232.609365,51.1117207 C230.860161,53.2718076 245.669914,48.3023822 244.864267,49.0226951 C240.784094,52.6706953 224.220414,57.612057 226.107826,59.1404525 C227.995237,60.668848 239.386377,54.8001299 253.394281,55.9301631 C267.402185,57.0601962 269.676894,59.8968154 273.934597,61.0586995 C292.002434,65.9892298 295.690031,72.3360927 295.690031,72.3360927 C295.690031,72.3360927 301.603264,65.2215382 303.625168,59.9660526 C304.639218,57.3302568 304.3811,53.8847794 303.871812,51.1047774 C304.608598,50.3517812 305.283131,49.5916769 305.842158,48.8509761 C309.234345,44.3563914 308.652097,35.3734672 308.652097,35.3734672 C308.652097,35.3734672 292.443953,22.2287726 277.925782,17.6425781 C274.395851,16.5274962 268.270432,15.3338653 259.697844,17.0066026 C251.125255,18.6793398 231.826186,22.9707341 231.555272,26.6906831 C231.284359,30.410632 245.51579,26.178562 258.669572,31.1259211 C265.880299,33.8379971 269.560331,36.0711734 272.035205,37.9128187 L272.035205,37.9128187 Z" id="mane"></path>
                <path d="M303.533143,17.190141 C293.14108,8.4978638 276.887531,6.88592297 279.099301,3.95776262 C281.311071,1.02960227 302.595591,4.39249597 311.928064,6.07610983 C321.260537,7.75972369 326.680226,10.9048859 329.580147,13.0647008 C341.507165,21.9477533 350.62793,38.388923 350.62793,38.388923 C350.62793,38.388923 346.506892,45.8988195 340.810617,48.3486058 C335.114343,50.7983921 324.848393,52.3190711 324.848393,52.3190711 C324.848393,52.3190711 326.797447,45.89515 316.082988,32.309269 C313.558115,29.1077432 313.925206,25.8824182 303.533143,17.190141 L303.533143,17.190141 Z" id="mane"></path>
                <path d="M348.888547,17.3825262 C358.600146,9.9694679 368.655024,8.2996536 370.393956,6.88670786 C372.132887,5.47376212 363.748006,6.82810955 362.733873,6.13269012 C361.71974,5.43727069 365.846089,2.5840564 363.929256,2.45368052 C357.980934,2.04909779 348.721155,5.4808311 344.387408,5.91762008 C336.794933,6.68284937 331.986065,9.21310728 329.325036,11.0259562 C318.380549,18.4819803 308.232101,33.4687917 308.232101,33.4687917 C308.232101,33.4687917 310.062944,41.0736314 314.055968,43.9531081 C318.048992,46.8325847 325.779005,49.2365849 325.779005,49.2365849 C325.779005,49.2365849 325.442695,42.8758458 336.308196,30.7828817 C338.868661,27.9331632 339.176947,24.7955844 348.888547,17.3825262 L348.888547,17.3825262 Z" id="mane"></path>
                <path d="M363.029797,20.4760743 C371.846445,14.9268005 381.419924,14.3109367 383.113075,12.8725601 C384.806226,11.4341836 378.249334,9.31882378 376.358488,9.15299887 C370.49081,8.63841065 361.740553,11.0516444 357.534724,11.2556822 C350.166351,11.6131449 345.692815,13.4584187 343.256362,14.8061332 C333.235532,20.3491169 324.706796,31.8779549 324.706796,31.8779549 C324.706796,31.8779549 327.220013,37.9562336 331.405453,40.3655411 C335.590894,42.7748486 343.393678,44.9299979 343.393678,44.9299979 C343.393678,44.9299979 342.462739,39.8851403 351.967782,30.6699174 C354.207654,28.4983414 354.213148,26.025348 363.029797,20.4760743 L363.029797,20.4760743 Z" id="mane"></path>
                <path d="M277.788444,22.5945619 C265.442138,16.0502794 251.818411,16.7591137 250.881492,14.6547594 C249.944573,12.5504051 271.128914,14.1634037 273.553941,13.0837125 C275.978967,12.0040213 262.780891,9.35680574 265.596832,8.10306795 C268.412773,6.84933016 279.509576,9.2771692 282.421391,9.13566934 C291.705925,8.68448668 297.73604,10.6627608 301.103029,12.2142398 C314.951041,18.5952821 328.382018,33.4474678 328.382018,33.4474678 C328.382018,33.4474678 326.712601,42.1774995 322.069619,46.0472038 C317.426637,49.9169081 308.206615,53.8992948 308.206615,53.8992948 C308.206615,53.8992948 308.150392,46.8017578 294.0594,35.2750677 C290.738844,32.5587922 290.134751,29.1388444 277.788444,22.5945619 L277.788444,22.5945619 Z" id="mane"></path>
                <path d="M135.102131,288.531786 L141.18703,273.910116 L152.954234,272.256344 L153.759305,293.78332 L135.102131,288.531786 L135.102131,288.531786 Z" id="hoof"></path>
                <path d="M326.091002,238.820688 L326.249986,223.510395 L337.696036,220.581247 L344.716829,236.771155 L326.091002,238.820688 L326.091002,238.820688 Z" id="hoof"></path>
                <path d="M301.607635,142.299405 C299.432338,149.387141 294.292374,163.648213 284.851337,177.11534 L299.756326,213.218097 L278.949633,257.405278 L267.122532,254.211254 L280.988603,217.598469 L259.586808,200.771102 C256.264789,202.618935 252.713657,204.19585 248.921051,205.428143 C238.913672,208.679737 201.15987,192.917158 177.810081,193.751597 C154.460291,194.586036 143.78243,207.171403 143.78243,207.171403 L103.21904,253.499963 L80.9776205,278.152134 L70.3438223,272.51384 L92.4059461,246.198952 L110.740096,168.451251 C112.4404,162.736209 119.540958,137.361903 131.996041,133.897636 C153.721648,127.854859 192.120161,127.095042 210.941342,120.97967 C229.26918,115.024594 261.997384,101.386019 266.780899,99.3832476 L296.568429,65.1535964 C298.723809,59.3891965 305.874525,40.9340177 310.614149,36.6664417 C314.850195,32.8522889 328.479491,27.4192435 340.7664,33.9302344 C353.053308,40.4412252 362.255898,44.0467281 366.083815,53.7664352 C369.911732,63.4861424 365.633679,68.6327573 369.911732,73.5210621 C374.189785,78.4093669 381.041661,91.3174079 382.545178,97.0261009 C384.210494,103.349126 382.999172,107.104598 380.48904,110.102264 C377.254603,113.964913 357.175083,107.859383 357.175083,107.859383 L330.747391,95.6845625 L301.607635,142.299405 Z" id="Body"></path>
                <path d="M63.0572375,275.658423 L75.803731,266.25916 L86.7419487,270.902158 L76.3448175,289.769021 L63.0572375,275.658423 L63.0572375,275.658423 Z" id="hoof"></path>
                <path d="M260.169697,265.821891 L267.962527,252.642281 L279.339672,255.828588 L277.324903,273.359857 L260.169697,265.821891 L260.169697,265.821891 Z" id="hoof"></path>
                <g id="Head" transform="translate(325.366746, 0.685576)">
                    <path d="M13.9284804,72.2470847 C17.7574758,70.1655916 18.6609118,64.2468654 15.9463612,59.0272398 C13.2318105,53.8076142 7.92721837,51.2636552 4.09822296,53.3451483 C0.269227546,55.4266415 -0.63420845,61.3453676 2.08034218,66.5649932 C4.79489282,71.7846188 10.099485,74.3285778 13.9284804,72.2470847 L13.9284804,72.2470847 Z" id="Eye"></path>
                    <path d="M11.6441067,70.8604618 C14.5777649,69.2415227 15.2699497,64.638069 13.1901447,60.5783602 C11.1103398,56.5186514 7.04612489,54.5400166 4.11246671,56.1589557 C1.17880853,57.7778948 0.486623739,62.3813485 2.5664287,66.4410573 C4.64623367,70.5007661 8.71044856,72.4794008 11.6441067,70.8604618 L11.6441067,70.8604618 Z" id="Pupil"></path>
                    <path d="M43.5897709,97.4001826 C44.6794153,96.7988624 44.9365126,95.0890082 44.1640136,93.5811163 C43.3915146,92.0732245 41.881949,91.338303 40.7923046,91.9396232 C39.7026601,92.5409435 39.4455629,94.2507977 40.2180619,95.7586895 C40.9905609,97.2665813 42.5001264,98.0015028 43.5897709,97.4001826 L43.5897709,97.4001826 Z" id="nostril"></path>
                    <path d="M52.5279042,98.8273671 C53.6175487,98.2260468 53.8746459,96.5161926 53.1021469,95.0083008 C52.3296479,93.5004089 50.8200824,92.7654875 49.730438,93.3668077 C48.6407935,93.9681279 48.3836963,95.6779821 49.1561953,97.185874 C49.9286942,98.6937658 51.4382598,99.4286873 52.5279042,98.8273671 L52.5279042,98.8273671 Z" id="nostril"></path>
                    <path d="M40.2967243,106.165995 C46.1813104,107.439216 53.1408762,103.56443 53.1408762,103.56443 C53.1408762,103.56443 46.3224369,103.290925 40.6691019,102.067738 C35.0157669,100.844552 29.6025316,98.4715445 29.6025316,98.4715445 C29.6025316,98.4715445 34.4121381,104.892773 40.2967243,106.165995 L40.2967243,106.165995 Z" id="Smile"></path>
                    <path d="M27.1650592,49.0065971 C27.1650592,49.0065971 21.5228981,47.7195241 19.7577642,46.1415712 C17.7746996,44.3687977 18.6066771,37.395002 18.6066771,37.395002 L90.4610943,0.601639885 L27.1650592,49.0065971 Z" id="Horn"></path>
                </g>
            </g>
            <g id="Tree" transform="translate(0.000000, 87.000000)" sketch:type="MSShapeGroup">
                <path d="M71,172 L97,172 L97,223.314302 C97,223.314302 88.3795061,227 84,227 C79.7128394,227 71,223.314302 71,223.314302 L71,172 Z" id="Rectangle-5"></path>
                <path d="M44.4741489,122.336039 L19.3994915,122.336039 C19.3994915,122.336039 33.4903375,111.195054 51.7785189,81.6703641 C53.9682332,78.1352593 56.0811555,74.5577217 58.1042828,70.9985926 L42.7242016,70.9985926 C42.7242016,70.9985926 52.5433353,66.1260115 63.8945125,45.8636767 C75.2456898,25.6013419 82.4983746,0 82.4983746,0 C82.4983746,0 93.4863999,30.8153056 100.374739,45.8636767 C107.263078,60.9120479 120.828458,70.9985926 120.828458,70.9985926 L103.600961,70.9985926 L103.600961,70.9985926 C106.312516,76.9948386 108.997429,82.5170565 111.446594,86.8802905 C123.032775,107.521293 140.6317,122.336039 140.6317,122.336039 L112.505792,122.336039 C112.678852,122.775011 112.850699,123.207834 113.02126,123.634237 C124.909773,153.355518 165.203522,181.420094 165.203522,181.420094 C165.203522,181.420094 110.327411,192.537401 82.9983678,192.537401 C55.427412,192.537401 0.503525287,181.420094 0.503525287,181.420094 C0.503525287,181.420094 16.0738233,171.78871 41.6477707,127.340234 C42.6036892,125.678812 43.5459194,124.009783 44.4741489,122.336039 L44.4741489,122.336039 Z" id="Triangle-1"></path>
            </g>
            <g id="Bird" transform="translate(562.000000, 30.000000)" sketch:type="MSShapeGroup">
                <ellipse id="Body" cx="52.5" cy="34" rx="21.5" ry="14"></ellipse>
                <path d="M50.7150351,48 C39.1600487,48 29.7928815,43.2420265 29.7928815,37.3727686 C29.7928815,31.5035108 39.1600487,40.8525622 50.7150351,40.8525622 C62.2700214,40.8525622 66,38.360446 66,40.8525622 C66,43.3446783 62.2700214,48 50.7150351,48 L50.7150351,48 Z" id="Belly"></path>
                <path d="M42.3324026,37.6845508 C41.0915784,38.8140399 33.7539875,38.2671985 33.7539875,38.2671985 C33.7539875,38.2671985 21.0415792,28.9564096 15.5544288,23.2267223 C9.8952347,17.3173869 3.2562079,12.4671845 0.97512466,7.95041335 C-1.30595859,3.4336422 6.80515661,0.115907728 9.76982285,1.04741013 C24.5966567,5.70602267 53.6894543,20.1204753 53.6894543,20.1204753 C53.6894543,20.1204753 47.7367341,32.7651322 42.3324026,37.6845508 L42.3324026,37.6845508 Z" id="Wing"></path>
                <path d="M78.7471247,12.8425957 L96.6648814,34.9642905 C96.6648814,34.9642905 72.996088,29.9550098 63.0655683,26.2130431 C58.2821673,24.4105868 52.5231193,18.3310215 52.5231193,18.3310215 L78.7471247,12.8425957 L78.7471247,12.8425957 Z" id="Tail"></path>
                <path d="M37.2612636,15.2245012 C38.7561395,14.1536646 48.0285093,15.1471849 48.0285093,15.1471849 C48.0285093,15.1471849 64.5934432,25.3473995 71.8458718,31.4846333 C79.3256925,37.8142935 87.9759539,43.128826 91.1186497,47.8445161 C94.2613456,52.5602062 84.2462167,55.4383644 80.4573023,54.3165694 C61.5082536,48.7062685 24.0113681,32.3515794 24.0113681,32.3515794 C24.0113681,32.3515794 30.7504258,19.8884628 37.2612636,15.2245012 L37.2612636,15.2245012 Z" id="Wing"></path>
                <path d="M18.1317512,32.8675468 C21.1660243,39.3745664 30.2195156,41.5748426 38.3532902,37.7820012 C46.4870647,33.9891599 50.6210274,25.6394728 47.5867543,19.1324532 C44.5524812,12.6254336 35.4989898,10.4251574 27.3652153,14.2179988 C19.2314408,18.0108401 15.0974781,26.3605272 18.1317512,32.8675468 L18.1317512,32.8675468 Z" id="Head"></path>
                <path d="M8.5,30 L18.826189,23.5730391 C18.826189,23.5730391 20.6368328,24.1873663 21.4367704,28.1811178 C22.2367081,32.1748692 21.4367704,36.606571 21.4367704,36.606571 L8.5,30 L8.5,30 Z" id="Beak"></path>
                <path d="M28.9245797,31.249389 C31.7409619,32.3872813 35.1771458,30.4558141 36.5995112,26.9353363 C38.0218766,23.4148584 36.8918026,19.6385033 34.0754203,18.500611 C31.2590381,17.3627187 27.8228542,19.2941859 26.4004888,22.8146637 C24.9781234,26.3351416 26.1081974,30.1114967 28.9245797,31.249389 L28.9245797,31.249389 Z" id="Eye"></path>
                <path d="M29.126967,30.6359193 C31.175245,31.4634773 33.6742879,30.0587739 34.7087354,27.4984264 C35.743183,24.9380789 34.921311,22.1916388 32.873033,21.3640807 C30.824755,20.5365227 28.3257121,21.9412261 27.2912646,24.5015736 C26.256817,27.0619211 27.078689,29.8083612 29.126967,30.6359193 L29.126967,30.6359193 Z" id="pupil"></path>
                <path d="M16.1659976,33.1674232 C18.6523024,32.906102 20.8066119,29.4860572 20.8066119,29.4860572 C20.8066119,29.4860572 17.4988693,30.4600397 15.8991125,30.6281809 C14.1837963,30.8084679 10.8613929,30.5313419 10.8613929,30.5313419 C10.8613929,30.5313419 13.6796929,33.4287443 16.1659976,33.1674232 L16.1659976,33.1674232 Z" id="Triangle-11"></path>
            </g>
            <path d="M86.5609374,25.5211071 C82.7586711,24.2519507 78.0709841,23.5027573 73,23.5027573 C60.2974508,23.5027573 50,28.2037675 50,34.0027573 C50,38.1709283 55.3200544,41.7718412 63.0293645,43.4675228 L63.0293645,43.4675228 C63.0098662,43.6448111 63,43.8232582 63,44.0027573 C63,49.8017472 73.2974508,54.5027573 86,54.5027573 C87.3807566,54.5027573 88.7330958,54.4472125 90.046881,54.3407503 C91.6311432,56.6239851 93.5338674,57.9632144 95.5985947,57.9992543 C98.6155049,58.0519147 101.38385,55.3118801 103.376731,50.8819443 C105.86196,49.5747359 107.651184,47.9843177 108.48111,46.2308879 C112.66944,48.8220606 119.404787,50.5027573 127,50.5027573 C139.702549,50.5027573 150,45.8017472 150,40.0027573 C150,36.0117361 145.122547,32.5407799 137.940414,30.7644159 L137.940414,30.7644159 C137.979911,30.5128786 138,30.258889 138,30.0027573 C138,24.2037675 127.702549,19.5027573 115,19.5027573 C111.182666,19.5027573 107.582538,19.9273082 104.413813,20.6786241 C102.579906,15.4414468 99.6970234,12.0637856 96.4014053,12.0062604 C92.1168192,11.9314726 88.3335749,17.4893831 86.5609374,25.5211071 L86.5609374,25.5211071 Z" id="cloud" sketch:type="MSShapeGroup"></path>
            <path d="M369.210107,50.094337 C365.718013,50.3836626 362.015038,50.5391634 358.18,50.5391634 C337.093768,50.5391634 320,45.8381533 320,40.0391634 C320,35.8709925 328.83129,32.2700795 341.628745,30.574398 L341.628745,30.574398 C341.596378,30.3971097 341.58,30.2186626 341.58,30.0391634 C341.58,25.2372546 353.300899,21.1882114 369.30396,19.9377839 C373.139522,15.3010194 378.717471,12.3380738 384.971577,12.2289079 C392.210192,12.1025574 398.676988,15.8284613 402.655936,21.6359034 C409.871751,23.1252555 415.10661,25.3011424 417.078643,27.8110329 C424.031271,25.2198601 435.211946,23.5391634 447.82,23.5391634 C468.906232,23.5391634 486,28.2401736 486,34.0391634 C486,38.0301847 477.903428,41.5011408 465.981087,43.2775049 L465.981087,43.2775049 C466.046653,43.5290421 466.08,43.7830318 466.08,44.0391634 C466.08,49.8381533 448.986232,54.5391634 427.9,54.5391634 C417.150667,54.5391634 407.438877,53.3174868 400.500279,51.3514599 C396.720023,55.3736271 391.532182,57.8963128 385.77046,57.996884 C379.178116,58.1119538 373.225926,55.0319298 369.210107,50.094337 L369.210107,50.094337 Z" id="Cloud" sketch:type="MSShapeGroup"></path>
        </g>
    </g>
</svg>