<?xml version="1.0" encoding="UTF-8" standalone="no"?>
<svg width="752px" height="492px" viewBox="0 0 752 492" version="1.1" xmlns="http://www.w3.org/2000/svg" xmlns:xlink="http://www.w3.org/1999/xlink" xmlns:sketch="http://www.bohemiancoding.com/sketch/ns">
    <!-- Generator: Sketch 3.3 (11970) - http://www.bohemiancoding.com/sketch -->
    <title>MonkeySketch</title>
    <desc>Created with Sketch.</desc>
    <defs></defs>
    <g id="Page-1" stroke="none" stroke-width="1" fill="none" fill-rule="evenodd" sketch:type="MSPage">
        <g id="MonkeySketch" sketch:type="MSLayerGroup">
            <g id="Group" sketch:type="MSShapeGroup">
                <path d="M0,0 L0,492 L752,492 L752,0 L0,0 Z" id="Shape" fill="#CCF380"></path>
                <path d="M442,411 C452,394 470,402 485,387 C498,374 499,356 499,356 L534,356 C534,356 535,374 548,387 C565,403 581,396 593,414 C617,449 620,492 620,492 L424,492 C424,492 421,447 442,411" id="Shape" fill="#7C5018"></path>
                <path d="M574,492 C574,455 544,418 517,418 C489,418 466,449 466,492 L574,492" id="Shape" fill="#EDAE95"></path>
                <g id="head" transform="translate(395.000000, 133.000000)">
                    <path d="M79,114 C-31,55 -14,183 57,192 C72,183 73,154 73,154 C73,154 83,108 79,114" id="Shape" fill="#DEA38B"></path>
                    <path d="M90,120 C-20,61 -3,189 68,198 C83,189 84,160 84,160 C84,160 94,114 90,120" id="Shape" fill="#BD8B78"></path>
                    <path d="M170,123 C280,64 263,192 192,201 C177,192 176,163 176,163 C176,163 166,117 170,123" id="Shape" fill="#DFA38B"></path>
                    <path d="M159,127 C269,68 252,196 181,205 C166,196 165,167 165,167 C165,167 155,121 159,127" id="Shape" fill="#BD8B78"></path>
                    <path d="M53,183 L37,188 L40,172 L25,179 L41,144 L27,149 L41,130 L28,128 C28,128 35,122 45,118 C21,55 83,37 83,37 L60,35 L88,31 L71,21 L106,25 L92,0 L132,25 L170,14 L159,25 L190,25 L171,37 L197,36 L179,44 C179,44 236,62 206,126 C206,128 222,135 222,135 L212,138 L224,157 L208,157 L220,174 L206,169 L212,192 L197,184 L53,183 Z" id="Shape" fill="#7C5018"></path>
                    <path d="M59,76 C78,53 93,69 126,69 C159,69 177,60 194,79 C209,96 180,124 190,138 C218,182 211,212 123,246 C17,209 39,163 57,138 C73,114 40,99 59,76" id="face" fill="#EDAE95"></path>
                    <path d="M96,146 C110,146 122,134 122,120 C122,106 110,95 96,95 C82,95 71,106 71,120 C71,134 82,146 96,146" id="Shape" fill="#FFFFFF"></path>
                    <path d="M151,148 C165,148 177,136 177,122 C177,108 165,97 151,97 C137,97 126,108 126,122 C126,136 137,148 151,148" id="Shape" fill="#FFFFFF"></path>
                    <path d="M141,125 C147,125 152,120 152,114 C152,108 147,104 141,104 C135,104 131,108 131,114 C131,120 135,125 141,125" id="Shape" stroke="#7C5018" stroke-width="4" fill="#000000"></path>
                    <path d="M107,125 C113,125 118,120 118,114 C118,108 113,104 107,104 C101,104 97,108 97,114 C97,120 101,125 107,125" id="Shape" stroke="#7C5018" stroke-width="4" fill="#000000"></path>
                    <path d="M121,168 C121,168 115,195 121,213 L121,168" id="Shape" fill="#7C5018"></path>
                    <path d="M66,93 L183,95 C183,95 151,100 125,100 C93,99 66,93 66,93" id="Shape" fill="#7C5018"></path>
                    <path d="M127,223 L164,212 C164,212 157,216 144,220 C139,221 127,223 127,223" id="Shape" fill="#7C5018"></path>
                    <path d="M97,156 C99,147 94,144 106,141 C111,140 118,139 124,139 C131,140 139,141 144,143 C154,146 150,152 150,156 C135,153 114,154 97,156" id="Shape" fill="#DFA38B"></path>
                    <path d="M122,156 C122,156 121,154 118,152 C116,151 114,149 110,149 C114,148 117,149 119,151 C122,153 122,156 122,156" id="Shape" fill="#7C5018"></path>
                    <path d="M125,156 C125,156 126,154 129,152 C131,151 133,149 137,149 C133,148 130,149 128,151 C125,153 125,156 125,156" id="Shape" fill="#7C5018"></path>
                    <path d="M97,155 C97,155 94,143 106,140 C111,139 118,138 124,138 C131,139 139,140 144,142 C154,145 150,155 150,155 C150,155 153,147 143,143 C138,142 131,141 124,141 C118,140 112,141 107,142 C94,145 97,155 97,155" id="Shape" fill="#7C5018"></path>
                    <path d="M113,53 L103,37 L118,45 L115,28 L133,47 L148,34 L136,54 L124,51 L113,53 Z" id="Shape" fill="#624014"></path>
                </g>
            </g>
        </g>
    </g>
</svg>