<?xml version="1.0" encoding="UTF-8" standalone="no"?>
<svg width="751px" height="440px" viewBox="0 0 751 440" version="1.1" xmlns="http://www.w3.org/2000/svg" xmlns:xlink="http://www.w3.org/1999/xlink" xmlns:sketch="http://www.bohemiancoding.com/sketch/ns">
    <!-- Generator: Sketch 3.3 (11970) - http://www.bohemiancoding.com/sketch -->
    <title>mtnHouse</title>
    <desc>Created with Sketch.</desc>
    <defs></defs>
    <g id="Page-1" stroke="none" stroke-width="1" fill="none" fill-rule="evenodd" sketch:type="MSPage">
        <g id="mtnHouse" sketch:type="MSLayerGroup" transform="translate(1.000000, 0.000000)" stroke="#000000">
            <rect id="back" fill="#FFFFFF" sketch:type="MSShapeGroup" x="0" y="0" width="749" height="439"></rect>
            <path d="M213.937775,131.387364 C206.553479,135.559666 197.621722,138 188,138 C183.493868,138 179.139067,137.464756 175.02368,136.467032 C166.663125,140.496083 154.957185,143 142,143 C118.52134,143 99.1510318,134.778611 96.3483801,124.159202 L96.3483801,124.159202 C91.145857,128.368152 83.7303466,131 75.5,131 C59.979169,131 47.3561086,121.640461 47.0074032,109.994946 C46.6724713,109.99831 46.336658,110 46,110 C20.5949015,110 0,100.374122 0,88.5 C0,76.6258779 20.5949015,67 46,67 C67.2390036,67 85.1160718,73.7277038 90.4081192,82.8723214 C98.648363,79.2320333 109.766491,77 122,77 C131.763132,77 140.815869,78.4215982 148.26235,80.8460765 L148.26235,80.8460765 C156.242147,69.5727884 171.050533,62 188,62 C211.357739,62 230.649334,76.3815372 233.607,95.0103535 C233.903548,95.003468 234.201237,95 234.5,95 C250.240115,95 263,104.625878 263,116.5 C263,128.374122 250.240115,138 234.5,138 C226.419397,138 219.12425,135.463049 213.937775,131.387364 Z" id="Cloud" fill="#FFFFFF" sketch:type="MSShapeGroup"></path>
            <path d="M549.386914,178.381498 C539.321328,183.936139 523.747568,187.5 506.267767,187.5 C481.416414,187.5 460.41771,180.296429 453.623084,170.409843 L453.623084,170.409843 C434.401351,169.514548 419.400932,162.061574 419.400932,153 C419.400932,146.57713 426.937166,140.962423 438.171154,137.918265 C442.176043,130.22204 457.25457,124.5 475.243897,124.5 C485.682586,124.5 495.141165,126.426695 502.024731,129.547806 L502.024731,129.547806 C503.130752,129.516157 504.250308,129.5 505.381371,129.5 C515.338682,129.5 524.404196,130.75221 531.193633,132.802651 L531.193633,132.802651 C540.972452,128.8886 554.005238,126.5 568.315506,126.5 C591.23206,126.5 610.872508,132.625569 619.119801,141.331923 C632.40989,145.712533 641,152.668176 641,160.5 C641,173.754834 616.395106,184.5 586.043431,184.5 C571.95898,184.5 559.112012,182.18619 549.386914,178.381498 Z" id="Cloud" fill="#FFFFFF" sketch:type="MSShapeGroup"></path>
            <g id="Mountains" transform="translate(0.000000, 156.000000)" fill="#FFFFFF" sketch:type="MSShapeGroup">
                <path d="M1.40854503,103 L73.9486143,0 L118.997344,63.9649123 L145.734988,26 L171.564096,62.6748768 L232.224596,0 L309.012384,79.3377111 L389.203233,14 L466.467377,76.9530973 L466.467377,76.9530973 L503.801963,30 L532.342471,65.893401 L600.670323,0 L651.770145,49.2791878 L675.051386,20 L741.048536,103 L749,103 L749,231 L0,231 L0,103 L1.40854503,103 Z"></path>
                <path d="M749,163.5 L749,107.722944 L741.048536,107.722944 L675.051386,66.04329 L651.770145,80.7462588 L600.670323,56 L532.342471,89.0893269 L503.801963,71.0649351 L466.467377,94.6431138 L466.467377,94.6431138 L389.203233,63.030303 L309.012384,95.8405822 L232.224596,56 L171.564096,87.4730983 L145.734988,69.0562771 L118.997344,88.1209083 L73.9486143,56 L1.40854503,107.722944 L1.40854503,107.722944 L0,107.722944 L0,163.5 L0,271 L749,271 L749,163.5 Z" id="Mountains-Copy"></path>
            </g>
            <g id="House" transform="translate(0.000000, 62.000000)" fill="#FFFFFF" sketch:type="MSShapeGroup">
                <rect id="Rectangle-15" x="0" y="286" width="749" height="91"></rect>
                <polygon id="Triangle-11-Copy" points="377.5 0.68220339 563.405594 133.317797 191.594406 133.317797 "></polygon>
                <rect id="Rectangle-50" x="215.041958" y="132" width="323.799534" height="206"></rect>
                <polygon id="Triangle-11" points="376.941725 17 538.841492 133 215.041958 133 "></polygon>
                <g id="Rectangle-50-Copy-+-Oval-1" transform="translate(338.979021, 214.000000)">
                    <rect id="Rectangle-50-Copy" x="0" y="0" width="83.7412587" height="124"></rect>
                    <ellipse id="Oval-1" cx="70.3426573" cy="67" rx="5.58275058" ry="5"></ellipse>
                </g>
                <g id="Oval-2-Copy-3-+-Oval-2-+-Path" transform="translate(341.212121, 53.000000)">
                    <ellipse id="Oval-2-Copy-3" cx="35.7296037" cy="32" rx="35.7296037" ry="32"></ellipse>
                    <ellipse id="Oval-2" cx="35.7296037" cy="32" rx="30.1468531" ry="27"></ellipse>
                    <path d="M6.32977763,26 L30.1468531,26 L30.1468531,5.46205651 C31.9560229,5.15866276 33.8221249,5 35.7296037,5 C38.0321131,5 40.2743332,5.23118432 42.4289044,5.66904927 L42.4289044,5.66904927 L42.4289044,26 L65.1294298,26 C65.618328,27.9296682 65.8764569,29.9378361 65.8764569,32 C65.8764569,33.7083683 65.699302,35.3796789 65.3605476,37 L42.4289044,37 L42.4289044,58.3309507 C40.2743332,58.7688157 38.0321131,59 35.7296037,59 C33.8221249,59 31.9560229,58.8413372 30.1468531,58.5379435 L30.1468531,37 L6.09865984,37 C5.75990551,35.3796789 5.58275058,33.7083683 5.58275058,32 C5.58275058,29.9378361 5.84087946,27.9296682 6.32977763,26 Z" id="Path"></path>
                </g>
                <g id="Rectangle-5-Copy-+-Rectangle-5-+-Rectangle-6" transform="translate(237.372960, 196.000000)">
                    <rect id="Rectangle-5-Copy" x="0" y="0" width="82.6247086" height="79.4411765"></rect>
                    <rect id="Rectangle-5" x="3.34965035" y="3" width="75.9254079" height="73"></rect>
                    <path d="M48.011655,33 L48.011655,3 L34.6130536,3 L34.6130536,33 L3.34965035,33 L3.34965035,45 L34.6130536,45 L34.6130536,76 L48.011655,76 L48.011655,45 L79.2750583,45 L79.2750583,33 L48.011655,33 Z" id="Rectangle-6"></path>
                </g>
                <g id="Rectangle-5-Copy-+-Rectangle-5-+-Rectangle-6-Copy" transform="translate(437.235431, 195.000000)">
                    <rect id="Rectangle-5-Copy" x="0" y="0" width="82.6247086" height="79.4411765"></rect>
                    <rect id="Rectangle-5" x="3.34965035" y="3" width="75.9254079" height="73"></rect>
                    <path d="M48.011655,33 L48.011655,3 L34.6130536,3 L34.6130536,33 L3.34965035,33 L3.34965035,45 L34.6130536,45 L34.6130536,76 L48.011655,76 L48.011655,45 L79.2750583,45 L79.2750583,33 L48.011655,33 Z" id="Rectangle-6"></path>
                </g>
                <path d="M337.222631,357.5 C340.805574,347.371206 338.979021,337 338.979021,337 L422.72028,337 C422.72028,337 430.396401,347.269814 434.496322,357.5 C438.596242,367.730186 439.151725,378 439.151725,378 L324.475749,378 C324.475749,378 333.639688,367.628794 337.222631,357.5 Z" id="Rectangle-15"></path>
            </g>
            <g id="Guy" transform="translate(67.000000, 233.000000)" sketch:type="MSShapeGroup">
                <path d="M87.8538383,37.7704039 L74.3926026,55 L68.0885165,50.0747082 L81.8978535,32.3995629 C81.5377424,30.5561115 81.8347201,28.4878498 82.8776621,26.6063327 C85.0196857,22.7420196 89.4972031,21.1287716 92.878477,23.0030423 C96.2597508,24.8773131 97.2643616,29.5293543 95.1223379,33.3936673 C93.5243585,36.2764986 90.626591,37.9065294 87.8538383,37.7704039 Z" id="rightArm" fill="#FFFFFF"></path>
                <path d="M16.7372464,97.1300538 L27.334659,77.1992194 L20.2710783,73.4434469 L9.69705954,93.3302838 C7.4355948,93.7348415 5.26527694,95.2532487 3.96094122,97.6063327 C1.81891754,101.470646 2.82352833,106.122687 6.20480221,107.996958 C9.58607609,109.871228 14.0635934,108.25798 16.2056171,104.393667 C17.537242,101.991353 17.6527885,99.2846047 16.7372464,97.1300538 Z" id="leftArm" fill="#FFFFFF"></path>
                <path d="M69.9154053,153.368358 L47.7619562,181.72348 L41.4578701,176.798188 L65.5495898,145.962193 C65.4333771,144.795722 65.6248548,143.688606 66.1651026,142.713973 C68.3071263,138.84966 75.1208018,138.531365 81.3838728,142.003042 C87.6469438,145.474719 90.9877127,151.421714 88.845689,155.286027 C86.7036653,159.15034 79.8899898,159.468635 73.6269188,155.996958 C72.2363484,155.226152 70.9898357,154.333323 69.9154053,153.368358 Z" id="rightLeg" fill="#FFFFFF" transform="translate(64.851442, 157.610849) scale(1, -1) rotate(-33.000000) translate(-64.851442, -157.610849) "></path>
                <path d="M34.8573072,150.50835 L20.1756177,183.483964 L12.867254,180.230071 L27.5498929,147.252324 C27.1269164,146.937666 26.7093214,146.601965 26.2993598,146.245591 C20.8949541,141.547613 18.8636388,135.035989 21.76229,131.701472 C24.6609411,128.366956 31.3918986,129.47226 36.7963042,134.170238 C42.2007099,138.868216 44.2320252,145.37984 41.3333741,148.714356 C39.9020594,150.360895 37.5363326,150.924895 34.8573072,150.50835 Z" id="leftLeg" fill="#FFFFFF" transform="translate(27.760728, 156.629845) scale(1, -1) rotate(-33.000000) translate(-27.760728, -156.629845) "></path>
                <path d="M47.7273688,124 L50.9721824,142.402252 L70.6683374,138.929289 L63.0278176,95.5977477 L43.3316626,99.0707112 L43.3423997,99.1316047 L28.9721824,96.5977477 L21.3316626,139.929289 L41.0278176,143.402252 L44.4489582,124 L47.7273688,124 Z" id="Shorts" fill="#FFFFFF"></path>
                <g id="Shirt" transform="translate(14.000000, 46.000000)" fill="#FFFFFF">
                    <path d="M50.1604526,28.3591695 L64.3206665,10.2349221 L52.5005052,1 L38.3402913,19.1242473 L50.1604526,28.3591695 L50.1604526,28.3591695 Z" id="right"></path>
                    <path d="M13.3575095,38.3997943 L25.2033852,18.6849463 L12.3458757,10.9593752 L0.5,30.6742231 L13.3575095,38.3997943 L13.3575095,38.3997943 Z" id="left"></path>
                    <path d="M12.4369829,11.1504548 L30.3702344,9 L50,4.99470186 L50,55 L12,55 L12.4369829,11.1504548 Z" id="main"></path>
                </g>
                <g id="Head" transform="translate(19.000000, 0.000000)">
                    <path d="M19,51 L32,51 L32,56 C32,56 28.6665305,60.3560772 25.5,60.3560772 C22.3334695,60.3560772 19,56 19,56 L19,51 Z" id="neck" fill="#FFFFFF"></path>
                    <path d="M47.9065012,33.9524374 C46.7726018,36.0784988 47.5807618,36.1599226 45.2735085,37.039628 C42.9662551,37.9193335 42.6548604,34.6837387 42.6548604,30.5416031 C42.6548604,26.3994675 43.5039399,23 45.7130789,23 C47.9222179,23 50.0582184,23.0211911 50.0582184,27.1633267 C50.0582184,28.8591272 49.0404006,31.826376 47.9065012,33.9524374 L47.9065012,33.9524374 Z" id="rightEar" fill="#FFFFFF"></path>
                    <circle id="head" fill="#FFFFFF" cx="25" cy="32" r="22"></circle>
                    <g id="eye" transform="translate(15.000000, 21.000000)" fill="#FFFFFF">
                        <ellipse id="Oval-12-Copy" cx="5" cy="7.5" rx="5" ry="7.5"></ellipse>
                        <ellipse id="Oval-12-Copy-2" cx="5" cy="9" rx="4" ry="6"></ellipse>
                    </g>
                    <ellipse id="nose" fill="#FFFFFF" cx="28" cy="39" rx="4" ry="3"></ellipse>
                    <g id="leftEar" transform="translate(0.000000, 24.000000)" fill="#FFFFFF">
                        <path d="M2.80657768,10.9524374 C3.9404771,13.0784988 3.13231701,13.1599226 5.43957037,14.039628 C7.74682373,14.9193335 8.05821842,11.6837387 8.05821842,7.54160309 C8.05821842,3.39946746 7.209139,0 5,0 C2.790861,0 0.654860437,0.0211911168 0.654860437,4.16332674 C0.654860437,5.85912716 1.67267826,8.82637599 2.80657768,10.9524374 Z" id="outer"></path>
                        <path d="M4.27881917,9.50930641 C4.95272384,10.7728777 4.47241416,10.8212699 5.84367232,11.3441007 C7.21493047,11.8669316 7.4000001,9.943937 7.4000001,7.48216261 C7.4000001,5.02038821 6.89537104,3 5.5824247,3 C4.26947835,3 3,3.01259441 3,5.47436881 C3,6.48222525 3.60491449,8.24573515 4.27881917,9.50930641 Z" id="inner"></path>
                    </g>
                    <path d="M25.5,48 C20.2532949,48 16,46.209139 16,44 C16,44 22.3112986,45.2781733 25.5,45.2781733 C28.644632,45.2781733 35,44 35,44 C35,46.209139 30.7467051,48 25.5,48 Z" id="smile" fill="#FFFFFF"></path>
                    <g id="Eye" transform="translate(27.000000, 21.000000)" fill="#FFFFFF">
                        <ellipse id="Oval-12-Copy-4" cx="5" cy="7.5" rx="5" ry="7.5"></ellipse>
                        <ellipse id="Oval-12-Copy-3" cx="5" cy="9" rx="4" ry="6"></ellipse>
                    </g>
                    <g id="Hair" transform="translate(7.000000, 0.000000)" stroke-linecap="square">
                        <path d="M11.5,11.5 C11.5,11.5 12.642241,10.933142 12.2454308,8.28909016 C11.8486207,5.64503828 10.3402913,4.92237599 10.3402913,3.77255154 C10.3402913,1.53276545 11.5,1.5 11.5,1.5" id="Line"></path>
                        <path d="M15.5,10.5 C15.5,10.5 16.642241,9.93314203 16.2454308,7.28909016 C15.8486207,4.64503828 14.3402913,3.92237599 14.3402913,2.77255154 C14.3402913,0.532765449 15.5,0.5 15.5,0.5" id="Line-Copy"></path>
                        <path d="M19.5,10.5 C19.5,10.5 20.642241,9.93314203 20.2454308,7.28909016 C19.8486207,4.64503828 18.3402913,3.92237599 18.3402913,2.77255154 C18.3402913,0.532765449 19.5,0.5 19.5,0.5" id="Line-Copy-2"></path>
                        <path d="M23.5,11 C23.5,11 24.642241,10.433142 24.2454308,7.78909016 C23.8486207,5.14503828 22.3402913,4.42237599 22.3402913,3.27255154 C22.3402913,1.03276545 23.5,1 23.5,1" id="Line-Copy-3"></path>
                        <path d="M27.5,12 C27.5,12 28.642241,11.433142 28.2454308,8.78909016 C27.8486207,6.14503828 26.3402913,5.42237599 26.3402913,4.27255154 C26.3402913,2.03276545 27.5,2 27.5,2" id="Line-Copy-4"></path>
                        <path d="M31.5,15 C31.5,15 32.642241,14.433142 32.2454308,11.7890902 C31.8486207,9.14503828 30.3402913,8.42237599 30.3402913,7.27255154 C30.3402913,5.03276545 31.5,5 31.5,5" id="Line-Copy-5"></path>
                        <path d="M1.16971086,18 C1.16971086,18 2.31195186,17.433142 1.9151417,14.7890902 C1.51833155,12.1450383 0.0100021362,11.422376 0.0100021362,10.2725515 C0.0100021362,8.03276545 1.16971086,8 1.16971086,8" id="Line-Copy-8"></path>
                        <path d="M8.17082739,13 C8.17082739,13 9.31306838,12.433142 8.91625823,9.78909016 C8.51944807,7.14503828 7.01111866,6.42237599 7.01111866,5.27255154 C7.01111866,3.03276545 8.17082739,3 8.17082739,3" id="Line-Copy-6"></path>
                        <path d="M4.84165477,15 C4.84165477,15 5.98389577,14.433142 5.58708562,11.7890902 C5.19027546,9.14503828 3.68194605,8.42237599 3.68194605,7.27255154 C3.68194605,5.03276545 4.84165477,5 4.84165477,5" id="Line-Copy-7"></path>
                    </g>
                </g>
            </g>
            <path d="M614.5,95.5 L566.5,139.5" id="Line" stroke-linecap="square" sketch:type="MSShapeGroup"></path>
            <path d="M601.5,63.5 L528.5,63.5" id="Line" stroke-linecap="square" sketch:type="MSShapeGroup"></path>
            <ellipse id="Oval-32" fill="#FFFFFF" sketch:type="MSShapeGroup" cx="652.5" cy="62" rx="50.5" ry="49"></ellipse>
            <g id="SunGlasses" transform="translate(597.000000, 40.000000)" fill="#FFFFFF" sketch:type="MSShapeGroup">
                <path d="M83.3970588,8.79499023 L104.731279,0.285714286 L107,3.48643838 L85.66578,11.9957143 L83.3970588,8.79499023 L83.3970588,8.79499023 Z" id="Rectangle-35"></path>
                <path d="M23.6029412,9.52165769 L2.2687212,0.285714286 L0,3.75977092 L21.33422,12.9957143 L23.6029412,9.52165769 L23.6029412,9.52165769 Z" id="Rectangle-35-Copy"></path>
                <rect id="Rectangle-34" x="50.3529412" y="8.14285714" width="6.29411765" height="4.71428571"></rect>
                <path d="M49.2767362,5 C50.9504074,7.24729692 51.9264706,9.94976956 51.9264706,12.8571429 C51.9264706,20.6680272 44.8815394,27 36.1911765,27 C27.5008135,27 20.4558824,20.6680272 20.4558824,12.8571429 C20.4558824,9.94976956 21.4319455,7.24729692 23.1056168,5 L49.2767362,5 Z" id="Oval-33"></path>
                <path d="M83.8943832,5 C85.5680545,7.24729692 86.5441176,9.94976956 86.5441176,12.8571429 C86.5441176,20.6680272 79.4991865,27 70.8088235,27 C62.1184606,27 55.0735294,20.6680272 55.0735294,12.8571429 C55.0735294,9.94976956 56.0495926,7.24729692 57.7232638,5 L83.8943832,5 Z" id="Oval-33-Copy"></path>
                <path d="M81.2772713,6.57142857 C82.6162083,8.36926611 83.3970588,10.5312442 83.3970588,12.8571429 C83.3970588,19.1058503 77.7611139,24.1714286 70.8088235,24.1714286 C63.8565331,24.1714286 58.2205882,19.1058503 58.2205882,12.8571429 C58.2205882,10.5312442 59.0014388,8.36926611 60.3403758,6.57142857 L81.2772713,6.57142857 Z" id="Oval-33-Copy-2"></path>
                <path d="M46.6596242,6.57142857 C47.9985612,8.36926611 48.7794118,10.5312442 48.7794118,12.8571429 C48.7794118,19.1058503 43.1434669,24.1714286 36.1911765,24.1714286 C29.2388861,24.1714286 23.6029412,19.1058503 23.6029412,12.8571429 C23.6029412,10.5312442 24.3837917,8.36926611 25.7227287,6.57142857 L46.6596242,6.57142857 Z" id="Oval-33-Copy-3"></path>
            </g>
            <g id="Sun" transform="translate(573.000000, 0.000000)" sketch:type="MSShapeGroup">
                <path d="M79,101.42 C66.0931052,101.42 55.6299996,92.0896142 55.6299996,80.5799999 C55.6299996,80.5799999 71.1557945,87.239283 79,87.239283 C86.7357948,87.239283 102.37,80.5799999 102.37,80.5799999 C102.37,92.0896142 91.9068948,101.42 79,101.42 Z" id="Smile" fill="#FFFFFF"></path>
                <ellipse id="Oval-37" fill="#FFFFFF" cx="73.5" cy="72" rx="8.5" ry="5"></ellipse>
                <path d="M40.5,31.5 L0.5,0.5" id="Line" stroke-linecap="square"></path>
                <path d="M77.5,13.5 L77.5,0.5" id="Line" stroke-linecap="square"></path>
                <path d="M111.5,24.5 L134.5,0.5" id="Line" stroke-linecap="square"></path>
                <path d="M129.5,61.5 L175.5,61.5" id="Line" stroke-linecap="square"></path>
                <path d="M119.5,91.5 L173.5,127.5" id="Line" stroke-linecap="square"></path>
                <path d="M80.5,110.5 L85.5,180.5" id="Line" stroke-linecap="square"></path>
            </g>
        </g>
    </g>
</svg>